<svg xmlns="http://www.w3.org/2000/svg" width="191" height="45" viewBox="0 0 178 42"><title>logo</title><path d="M28.668,25.00919h8.6v5.931A3.98035,3.98035,0,0,0,41.02432,35.092a3.98035,3.98035,0,0,0,3.75632-4.15172V11.46667a3.98035,3.98035,0,0,0-3.75632-4.15172A3.98035,3.98035,0,0,0,37.268,11.46667v5.931h-8.6v-5.931a3.98035,3.98035,0,0,0-3.75632-4.15172,3.98035,3.98035,0,0,0-3.75632,4.15172v8.89655L12.2588,8.89655A4.526,4.526,0,0,0,8.89788,7.31494a3.96035,3.96035,0,0,0-2.27356.7908,4.45214,4.45214,0,0,0-.88966.98851,3.9406,3.9406,0,0,0-.692,2.37241V30.84138A3.98035,3.98035,0,0,0,8.799,34.9931a3.98035,3.98035,0,0,0,3.75632-4.15172V21.846l8.9954,11.46667a3.93189,3.93189,0,0,0,1.58161,1.18621,4.02792,4.02792,0,0,0,1.77931.49425,3.13007,3.13007,0,0,0,1.58161-.3954,4.29785,4.29785,0,0,0,.692-0.3954,3.87028,3.87028,0,0,0,.7908-0.98851l0.09885-.09885V33.01609a4.145,4.145,0,0,0,.49425-2.17471V25.00919m12.554,15.12414a8.82273,8.82273,0,0,1-8.10574-5.53563,2.16069,2.16069,0,0,1-.29655.49425l-0.29655.5931a7.689,7.689,0,0,1-1.977,2.37242,9.794,9.794,0,0,1-1.68046,1.08735c-0.09885,0-.1977.09885-0.29655,0.09885l-1.28506.49425a7.70883,7.70883,0,0,1-2.17471.29655,8.97006,8.97006,0,0,1-4.15172-1.08735A9.80892,9.80892,0,0,1,17.69559,36.377L16.70708,35.092a8.85793,8.85793,0,0,1-7.8092,4.84368,9.14071,9.14071,0,0,1-8.89655-9.292v-19.177A9.55025,9.55025,0,0,1,1.38524,6.52414,8.388,8.388,0,0,1,3.4611,4.05287a8.081,8.081,0,0,1,1.977-1.18621L6.822,2.37241a13.45486,13.45486,0,0,1,2.07586-.1977,9.51713,9.51713,0,0,1,7.31494,3.55862l0.98851,1.28506a8.73022,8.73022,0,0,1,7.71035-4.74483A8.92712,8.92712,0,0,1,33.01743,7.8092a8.82273,8.82273,0,0,1,8.10575-5.53563,9.14071,9.14071,0,0,1,8.89655,9.292V30.94023a9.18322,9.18322,0,0,1-8.89655,9.1931m43.3954-23.823H76.01743a0.85042,0.85042,0,0,1-.79081-0.7908V3.45977a0.85042,0.85042,0,0,1,.79081-0.7908h8.50115a0.692,0.692,0,0,1,0,1.38391H76.80823v4.646h6.82069a0.692,0.692,0,0,1,0,1.38391H76.80823v4.74483h7.8092a0.67568,0.67568,0,0,1,.692.659q0.00041,0.01648,0,.033a0.84549,0.84549,0,0,1-.79081.7908m92.72183,0h-8.50116a0.85043,0.85043,0,0,1-.79081-0.7908V3.45977a0.85042,0.85042,0,0,1,.79081-0.7908h8.4023a0.692,0.692,0,0,1,0,1.38391H169.4312v4.646h6.82068a0.692,0.692,0,0,1,0,1.38391H169.4312v4.74483h7.80919a0.67568,0.67568,0,0,1,.692.659q0.00041,0.01647,0,.03294a0.70505,0.70505,0,0,1-.692.7908M60.89326,16.4092a0.764,0.764,0,0,1-.692-0.7908V3.45977a0.85042,0.85042,0,0,1,.7908-0.7908h0.1977a0.88044,0.88044,0,0,1,.7908.49425l8.20462,10.47816V3.36092a0.77967,0.77967,0,0,1,.76838-0.7908q0.01122-.00016.02243,0a0.76394,0.76394,0,0,1,.692.7908V15.71724a0.67568,0.67568,0,0,1-.659.692q-0.01647.0004-.03294,0H70.87719a1.008,1.008,0,0,1-.79081-0.49425L61.68409,5.14023v10.577a0.764,0.764,0,0,1-.7908.692m38.84828,0a0.85042,0.85042,0,0,1-.79081-0.7908V5.53563l-4.34943,6.42529a0.71478,0.71478,0,0,1-.5931.3954,0.85656,0.85656,0,0,1-.692-0.3954L88.96685,5.53563V15.71724a0.77967,0.77967,0,0,1-.76839.7908q-0.01121.00016-.02242,0a0.705,0.705,0,0,1-.692-0.7908V3.45977A0.85042,0.85042,0,0,1,88.2749,2.669h0.1977a0.83215,0.83215,0,0,1,.692.3954l4.84368,7.31494,4.84368-7.31494a0.74622,0.74622,0,0,1,.692-0.3954h0.1977a0.85042,0.85042,0,0,1,.79081.7908V15.71724a0.83879,0.83879,0,0,1-.79081.692m34.89426,0a0.764,0.764,0,0,1-.692-0.7908V3.45977a0.85042,0.85042,0,0,1,.79081-0.7908h0.1977a0.88045,0.88045,0,0,1,.79081.49425l8.30344,10.577V3.36092a0.77967,0.77967,0,0,1,.76838-0.7908q0.01122-.00016.02243,0a0.764,0.764,0,0,1,.692.7908V15.71724a0.67568,0.67568,0,0,1-.659.692q-0.01647.0004-.03294,0h-0.09886a1.008,1.008,0,0,1-.79081-0.49425L135.52548,5.14023v10.577a1.0553,1.0553,0,0,1-.88965.692m15.02528,0a0.85043,0.85043,0,0,1-.79081-0.7908V3.36092a0.79081,0.79081,0,0,1,1.58162,0V15.61839a0.72754,0.72754,0,0,1-.79081.7908M110.21972,3.954a5.3876,5.3876,0,0,0-5.34342,5.43141q0.00084,0.10158.00549,0.20308h0a5.44711,5.44711,0,0,0,5.25543,5.63225l0.0825,0.00223a5.3876,5.3876,0,0,0,5.34342-5.43141q-0.00084-.10158-0.00549-0.20308h0a5.38759,5.38759,0,0,0-5.13486-5.629q-0.10147-.00466-0.20308-0.00549m0,12.65287a6.836,6.836,0,0,1-6.92145-6.74954q-0.00169-.13443.00191-0.26886h0a6.92023,6.92023,0,0,1,13.83908-.19571q0.00138,0.09785,0,.19571h0a6.836,6.836,0,0,1-6.65069,7.01649q-0.13439.0036-.26885,0.00191m15.91494,0a6.75829,6.75829,0,0,1-6.82537-6.69054q-0.00164-.164.00468-0.32785h0A6.838,6.838,0,0,1,125.96863,2.572q0.1324-.0035.26488-0.00188a6.90746,6.90746,0,0,1,4.84367,1.77931,0.70457,0.70457,0,0,1,.29655.5931,0.85042,0.85042,0,0,1-.79081.7908,0.75507,0.75507,0,0,1-.49425-0.1977A5.91383,5.91383,0,0,0,126.23351,3.954a5.3699,5.3699,0,0,0-5.24424,5.49269q0.00164,0.07093.00516,0.1418h0a5.3699,5.3699,0,0,0,5.09728,5.62933q0.07086,0.00352.1418,0.00516a5.59877,5.59877,0,0,0,4.05288-1.68046,0.75507,0.75507,0,0,1,.49425-0.1977,0.764,0.764,0,0,1,.692.7908,0.85443,0.85443,0,0,1-.29655.5931,7.67483,7.67483,0,0,1-5.04138,1.87816m34.0046,0a6.7583,6.7583,0,0,1-6.82537-6.69053q-0.00163-.164.00469-0.32786h0A6.838,6.838,0,0,1,159.97321,2.572q0.13242-.00351.26491-0.00188a6.90746,6.90746,0,0,1,4.84367,1.77931,0.70456,0.70456,0,0,1,.29655.5931,0.85042,0.85042,0,0,1-.79081.7908,0.75507,0.75507,0,0,1-.49425-0.1977A5.91383,5.91383,0,0,0,160.23812,3.954a5.36991,5.36991,0,0,0-5.24424,5.49269q0.00165,0.07093.00516,0.1418h0a5.3699,5.3699,0,0,0,5.09728,5.62933q0.07086,0.00352.1418,0.00516a5.59881,5.59881,0,0,0,4.05288-1.68046,0.75507,0.75507,0,0,1,.49425-0.1977,0.764,0.764,0,0,1,.692.7908,0.85444,0.85444,0,0,1-.29655.5931,7.29043,7.29043,0,0,1-5.04139,1.87816m-59.11265,7.01839h-0.79081a1.29423,1.29423,0,0,1-1.1862-.5931l-1.38391-1.68046a1.31687,1.31687,0,0,1-.29655-0.49425,0.48686,0.48686,0,0,1,.55879-0.40226l0.03431,0.00686a2.13071,2.13071,0,0,1,1.58161.5931l1.08735,0.88965,1.08735-.88965a2.13071,2.13071,0,0,1,1.58161-.5931,0.48685,0.48685,0,0,1,.58624.36107l0.00686,0.03433a0.67466,0.67466,0,0,1-.29655.49425l-1.38391,1.68046a1.54061,1.54061,0,0,1-1.1862.5931m75.71955,15.61839H168.245a1.30851,1.30851,0,0,1-1.28506-1.28506V25.9977a1.30851,1.30851,0,0,1,1.28506-1.28506h8.4023a1.1907,1.1907,0,0,1,0,2.37241h-7.11724v3.75632h6.22759a1.202,1.202,0,0,1,1.1862,1.18621,1.12191,1.12191,0,0,1-1.15411,1.08875l-0.0321-.0014h-6.22759v3.954H176.845a1.08969,1.08969,0,1,1,.0037,2.17937q-0.05136.00009-.10255-0.00466m-105.96781.09885a1.3085,1.3085,0,0,1-1.28506-1.28506V33.11494H62.57372v4.94253a1.28506,1.28506,0,1,1-2.57011.00265V25.89885a1.28506,1.28506,0,1,1,2.57011-.00265v4.84633h6.91954V25.89885a1.28506,1.28506,0,0,1,2.57011,0V38.15632a1.17014,1.17014,0,0,1-1.28506,1.18621M97.468,27.08506v4.84368h3.75632c1.77931,0,2.96552-.98851,2.96552-2.47126h0c0-1.58161-1.08735-2.37241-2.96552-2.37241H97.468m8.0069,12.25747a1.54266,1.54266,0,0,1-1.28506-.692l-3.55862-4.54712H97.468v3.954a1.28506,1.28506,0,0,1-2.57011,0V25.9977a1.3085,1.3085,0,0,1,1.28506-1.28506h5.14023a5.46143,5.46143,0,0,1,4.15172,1.48276,4.32723,4.32723,0,0,1,1.1862,3.16322h0A4.31055,4.31055,0,0,1,103.399,33.708l2.76782,3.55862a1.75629,1.75629,0,0,1,.3954.98851,0.98895,0.98895,0,0,1-1.08735,1.08735m39.63907,0a1.30851,1.30851,0,0,1-1.28506-1.28506V25.89885a1.28506,1.28506,0,0,1,2.57012,0h0V38.15632a1.17014,1.17014,0,0,1-1.28506,1.18621m-11.269.09885h-0.09886a1.61871,1.61871,0,0,1-1.48276-.98851L127.222,26.492a1.25378,1.25378,0,0,1-.09886-0.5931,1.32149,1.32149,0,0,1,2.57012-.3954L133.845,35.98161l4.25058-10.577a1.33489,1.33489,0,0,1,1.1862-.7908,1.22574,1.22574,0,0,1,1.28419,1.16438L140.56683,25.8a4.28149,4.28149,0,0,1-.09886.49425L135.32775,38.354a1.40977,1.40977,0,0,1-1.48276,1.08735M83.53007,26.78851a4.86264,4.86264,0,0,0-4.8516,4.87365q0.00031,0.13337.00792,0.26658h0a4.94161,4.94161,0,0,0,4.739,5.13624q0.10171,0.00409.20354,0.004a4.86264,4.86264,0,0,0,4.8516-4.87365q-0.00031-.13337-0.00792-0.26658h0a5.06476,5.06476,0,0,0-4.94253-5.14023M83.43122,39.54023a7.32671,7.32671,0,0,1-7.51264-7.13595q-0.00484-.18832,0-0.3767h0a7.46887,7.46887,0,0,1,7.4236-7.51387q0.094-.00057.18789,0.00123a7.32672,7.32672,0,0,1,7.51264,7.13595q0.00484,0.18831,0,.3767h0a7.46888,7.46888,0,0,1-7.4236,7.51387q-0.09394.00057-.18789-0.00123M117.337,26.78851a4.86264,4.86264,0,0,0-4.8516,4.87365q0.00031,0.13337.00792,0.26658h0a4.94161,4.94161,0,0,0,4.739,5.13624q0.10171,0.00409.20354,0.004a4.86264,4.86264,0,0,0,4.8516-4.87365q-0.00031-.13337-0.00792-0.26658h0a4.93939,4.93939,0,0,0-4.73445-5.13615q-0.104-.00423-0.20808-0.00408m0,12.75173a7.32671,7.32671,0,0,1-7.51264-7.13595q-0.00484-.18832,0-0.3767h0a7.46887,7.46887,0,0,1,7.4236-7.51387q0.094-.00057.18789,0.00123a7.32672,7.32672,0,0,1,7.51264,7.13595q0.00484,0.18831,0,.3767h0a7.46886,7.46886,0,0,1-7.42358,7.51387q-0.094.00057-.18791-0.00123m40.331,0a7.30474,7.30474,0,0,1-7.41592-7.19184q-0.00247-.16041.00213-0.3208h0a7.32671,7.32671,0,0,1,7.13594-7.51264q0.18833-.00484.37671,0a7.23663,7.23663,0,0,1,4.94253,1.68046,1.21663,1.21663,0,0,1,.49425.98851,1.30851,1.30851,0,0,1-1.28506,1.28506,0.973,0.973,0,0,1-.79081-0.29655,5.32854,5.32854,0,0,0-3.45977-1.28506,4.84448,4.84448,0,0,0-4.75307,4.93421q0.00192,0.10309.00824,0.206h0a4.84448,4.84448,0,0,0,4.53881,5.132q0.10292,0.00631.206,0.00824a5.247,5.247,0,0,0,3.65747-1.38391,1.12244,1.12244,0,0,1,.79081-0.29655,1.202,1.202,0,0,1,1.1862,1.18621,1.253,1.253,0,0,1-.3954.88966,7.40794,7.40794,0,0,1-5.23908,1.977" fill="#0098CE"/>
</svg>