<?xml version="1.0" encoding="utf-8"?>
<!-- Generator: Adobe Illustrator 27.7.0, SVG Export Plug-In . SVG Version: 6.00 Build 0)  -->
<svg version="1.1" id="Vrstva_1" xmlns="http://www.w3.org/2000/svg" xmlns:xlink="http://www.w3.org/1999/xlink" x="0px" y="0px"
	 viewBox="0 0 423 54" style="enable-background:new 0 0 497 54;" xml:space="preserve">
<style type="text/css">
	.st0{fill:#225e9d;}
</style>
<g>
	<g>
		<path class="st0" d="M55.5,18h-4.7v18.1h4.7c5.4,0,9.1-3.6,9.1-9v-0.1C64.5,21.6,60.9,18,55.5,18z"/>
		<path class="st0" d="M93.9,18h-6.3v7.7h6.5c2.9,0,4.7-1.4,4.7-3.8v-0.1C98.7,18.7,96.1,18,93.9,18z"/>
		<path class="st0" d="M113.3,21.4c0-4.8-1.6-9-4.7-12c-3.4-3.4-8.3-5.2-14.1-5.2H83.1c-4.7,0-8.6,3.1-9.7,7.4
			C69.1,7,62.8,4.2,55.5,4.2h-9.2c-3.3,0-6.2,1.5-8,3.9c-4.1-3-8.9-4.5-14.7-4.5c-6.4,0-12.4,2.4-16.8,6.7C2.4,14.7,0,20.6,0,27.1
			v0.1c0,6.3,2.4,12.2,6.7,16.5c4.3,4.4,10.2,6.8,16.6,6.8c5.8,0,10.6-1.5,14.8-4.8c1.8,2.6,4.8,4.2,8.2,4.2h9.2
			c7.3,0,13.6-2.8,17.9-7.4c1,4.4,4.9,7.7,9.7,7.7c4.5,0,8.2-2.8,9.5-6.8l2,2.5c2.8,3.6,6.2,4.3,8.6,4.3c5.4,0,9.8-4.4,9.8-9.7
			c0-3.5-1.8-5.8-2.6-6.7l-0.9-1.1C112,29.7,113.3,25.9,113.3,21.4L113.3,21.4z M35.6,40.6c-3.5,3-7.2,4.4-12.3,4.4
			c-4.9,0-9.4-1.8-12.7-5.2C7.3,36.5,5.5,32,5.5,27.1v-0.1c0-10.2,7.8-17.9,18.1-17.9c4.6,0,8.3,1.1,11.5,3.5
			c1.1,0.8,1.8,2.2,1.8,3.6c0,2.4-2,4.4-4.5,4.4c-1.2,0-2-0.4-2.6-0.8l-0.1,0c-2-1.5-4-2.2-6.2-2.2c-5,0-8.7,4-8.7,9.4v0.1
			c0,5.4,3.7,9.5,8.7,9.5c3,0,4.8-1,6.6-2.4c0.8-0.6,1.7-1,2.7-1c2.4,0,4.3,1.9,4.3,4.2C37.1,38.6,36.6,39.8,35.6,40.6z M73.9,27.1
			c0,10.1-7.7,17.4-18.4,17.4h-9.2c-2.5,0-4.5-2-4.5-4.5V14.2c0-2.5,2-4.5,4.5-4.5h9.2C66.1,9.7,73.9,16.9,73.9,27.1L73.9,27.1z
			 M107.8,21.5c0,4.8-2.1,8.3-6.1,10.4l4.3,5.2c0.7,0.9,1.4,1.9,1.4,3.3c0,2.1-1.6,4.2-4.3,4.2c-1.7,0-3.1-0.7-4.3-2.2l-6.8-8.6
			h-4.5v6.3c0,2.5-2,4.5-4.5,4.5c-2.5,0-4.5-2-4.5-4.5v-26c0-2.5,2-4.5,4.5-4.5h11.5c4.3,0,7.9,1.2,10.2,3.6
			C106.8,15.3,107.8,18.1,107.8,21.5L107.8,21.5z"/>
	</g>
	<g>
		<path class="st0" d="M123.9,14.8L123.9,14.8c0-4.8,3.6-8.7,8.6-8.7c2.6,0,4.3,0.8,5.7,1.9c0.3,0.2,0.6,0.6,0.6,1.2
			c0,0.8-0.6,1.4-1.5,1.4c-0.4,0-0.7-0.1-0.9-0.3c-1.1-0.9-2.4-1.5-4-1.5c-3.2,0-5.5,2.6-5.5,5.9v0c0,3.3,2.3,5.9,5.5,5.9
			c1.8,0,3-0.6,4.2-1.6c0.2-0.2,0.5-0.3,0.9-0.3c0.7,0,1.4,0.6,1.4,1.4c0,0.5-0.2,0.8-0.5,1.1c-1.6,1.4-3.4,2.2-6.1,2.2
			C127.5,23.4,123.9,19.6,123.9,14.8z"/>
		<path class="st0" d="M142.3,21.6V7.8c0-0.8,0.6-1.5,1.5-1.5h9.7c0.7,0,1.3,0.6,1.3,1.3c0,0.7-0.6,1.3-1.3,1.3h-8.3v4.4h7.2
			c0.7,0,1.3,0.6,1.3,1.3c0,0.7-0.6,1.3-1.3,1.3h-7.2v4.5h8.4c0.7,0,1.3,0.6,1.3,1.3c0,0.7-0.6,1.3-1.3,1.3h-9.9
			C142.9,23.1,142.3,22.5,142.3,21.6z"/>
		<path class="st0" d="M158.3,7.8c0-0.8,0.6-1.5,1.5-1.5h0.3c0.7,0,1.1,0.4,1.5,0.9L170,18V7.7c0-0.8,0.6-1.4,1.4-1.4
			c0.8,0,1.5,0.6,1.5,1.4v14.1c0,0.8-0.6,1.5-1.4,1.5h-0.1c-0.7,0-1.1-0.4-1.5-0.9l-8.6-11.1v10.6c0,0.8-0.6,1.4-1.4,1.4
			c-0.8,0-1.5-0.6-1.5-1.4V7.8z"/>
		<path class="st0" d="M181.3,9.1h-4.1c-0.8,0-1.4-0.6-1.4-1.4c0-0.7,0.6-1.4,1.4-1.4h11.1c0.7,0,1.3,0.6,1.3,1.4
			c0,0.7-0.6,1.4-1.3,1.4h-4.1v12.7c0,0.8-0.7,1.5-1.5,1.5s-1.5-0.6-1.5-1.5V9.1z"/>
		<path class="st0" d="M192.7,7.8c0-0.8,0.6-1.5,1.5-1.5h6c2.1,0,3.8,0.6,4.8,1.7c0.9,0.9,1.4,2.2,1.4,3.6v0c0,2.7-1.6,4.3-3.8,5
			l3.2,4c0.3,0.4,0.5,0.7,0.5,1.1c0,0.8-0.7,1.4-1.4,1.4c-0.7,0-1.1-0.3-1.4-0.8l-4.1-5.2h-3.7v4.5c0,0.8-0.6,1.5-1.5,1.5
			c-0.8,0-1.5-0.6-1.5-1.5V7.8z M199.9,14.7c2.1,0,3.4-1.1,3.4-2.8v0c0-1.8-1.3-2.8-3.5-2.8h-4.3v5.6H199.9z"/>
		<path class="st0" d="M209.7,16V7.7c0-0.8,0.6-1.5,1.5-1.5c0.8,0,1.5,0.6,1.5,1.5v8.2c0,3.1,1.6,4.8,4.2,4.8c2.6,0,4.2-1.6,4.2-4.6
			V7.7c0-0.8,0.6-1.5,1.5-1.5c0.8,0,1.5,0.6,1.5,1.5v8.2c0,5-2.8,7.5-7.2,7.5C212.5,23.4,209.7,20.9,209.7,16z"/>
		<path class="st0" d="M228,7.8c0-0.8,0.6-1.5,1.5-1.5h0.3c0.6,0,1.1,0.3,1.4,0.8l5.1,7.9l5.1-8c0.3-0.5,0.7-0.8,1.3-0.8h0.3
			c0.8,0,1.5,0.7,1.5,1.5v14c0,0.8-0.6,1.5-1.5,1.5c-0.8,0-1.5-0.7-1.5-1.5v-10l-4.1,6.1c-0.3,0.5-0.7,0.8-1.2,0.8
			c-0.5,0-0.9-0.3-1.2-0.8l-4.1-6.1v10c0,0.8-0.6,1.4-1.5,1.4c-0.8,0-1.4-0.6-1.4-1.4V7.8z"/>
		<path class="st0" d="M124.6,32.6c0-0.8,0.6-1.5,1.5-1.5h4.8c5.3,0,8.9,3.6,8.9,8.3v0c0,4.7-3.6,8.4-8.9,8.4h-4.8
			c-0.8,0-1.5-0.6-1.5-1.5V32.6z M130.9,45.2c3.5,0,5.8-2.4,5.8-5.6v0c0-3.3-2.3-5.7-5.8-5.7h-3.3v11.4H130.9z"/>
		<path class="st0" d="M143,40.8v-8.3c0-0.8,0.6-1.5,1.5-1.5c0.8,0,1.5,0.6,1.5,1.5v8.2c0,3.1,1.6,4.8,4.2,4.8
			c2.6,0,4.2-1.6,4.2-4.6v-8.3c0-0.8,0.6-1.5,1.5-1.5c0.8,0,1.5,0.6,1.5,1.5v8.2c0,5-2.8,7.5-7.2,7.5C145.8,48.1,143,45.6,143,40.8z
			"/>
		<path class="st0" d="M161,46c-0.3-0.2-0.6-0.6-0.6-1.1c0-0.8,0.6-1.4,1.4-1.4c0.4,0,0.7,0.1,0.9,0.3c1.4,1.1,2.9,1.7,4.7,1.7
			s3-0.9,3-2.1v0c0-1.2-0.7-1.8-3.8-2.6c-3.6-0.9-5.6-1.9-5.6-5v0c0-2.9,2.4-4.9,5.7-4.9c2.1,0,3.8,0.6,5.3,1.6
			c0.3,0.2,0.6,0.6,0.6,1.2c0,0.8-0.6,1.4-1.4,1.4c-0.3,0-0.5-0.1-0.8-0.2c-1.3-0.8-2.5-1.3-3.8-1.3c-1.7,0-2.7,0.9-2.7,2v0
			c0,1.3,0.8,1.9,4,2.6c3.5,0.9,5.4,2.1,5.4,4.9v0c0,3.1-2.5,5-6,5C165,48.1,162.8,47.4,161,46z M168.3,26.5
			c0.6-0.5,1.1-0.6,1.8-0.6c0.4,0,0.6,0.2,0.6,0.5c0,0.2-0.1,0.4-0.3,0.6l-1.6,2c-0.3,0.4-0.7,0.7-1.4,0.7h-0.9
			c-0.7,0-1-0.3-1.4-0.7l-1.6-2c-0.1-0.2-0.3-0.4-0.3-0.6c0-0.3,0.3-0.5,0.7-0.5c0.7,0,1.1,0.1,1.8,0.6l1.2,1.1L168.3,26.5z"/>
		<path class="st0" d="M176.7,46.4V32.6c0-0.8,0.6-1.5,1.5-1.5h9.7c0.7,0,1.3,0.6,1.3,1.3c0,0.7-0.6,1.3-1.3,1.3h-8.3v4.4h7.2
			c0.7,0,1.3,0.6,1.3,1.3c0,0.7-0.6,1.3-1.3,1.3h-7.2v4.5h8.4c0.7,0,1.3,0.6,1.3,1.3c0,0.7-0.6,1.3-1.3,1.3h-9.9
			C177.4,47.9,176.7,47.2,176.7,46.4z"/>
		<path class="st0" d="M197.6,46.9l-5.9-13.8c-0.1-0.2-0.2-0.4-0.2-0.7c0-0.8,0.6-1.4,1.5-1.4c0.8,0,1.3,0.4,1.5,1.1l4.8,12.1
			l4.9-12.2c0.2-0.5,0.7-1,1.4-1c0.8,0,1.5,0.6,1.5,1.4c0,0.2-0.1,0.5-0.1,0.6l-5.9,13.9c-0.3,0.7-0.9,1.2-1.7,1.2h-0.2
			C198.4,48.1,197.9,47.7,197.6,46.9z"/>
		<path class="st0" d="M210.3,32.5c0-0.8,0.6-1.5,1.5-1.5h0.3c0.7,0,1.1,0.4,1.5,0.9l8.4,10.8V32.5c0-0.8,0.6-1.4,1.4-1.4
			c0.8,0,1.5,0.6,1.5,1.4v14.1c0,0.8-0.6,1.5-1.4,1.5h-0.1c-0.7,0-1.1-0.4-1.5-0.9l-8.6-11.1v10.6c0,0.8-0.6,1.4-1.4,1.4
			c-0.8,0-1.5-0.6-1.5-1.4V32.5z"/>
		<path class="st0" d="M229.3,32.5c0-0.8,0.6-1.5,1.5-1.5c0.8,0,1.5,0.6,1.5,1.5v14.1c0,0.8-0.6,1.5-1.5,1.5c-0.8,0-1.5-0.6-1.5-1.5
			V32.5z M230,29.4c0-0.2,0.1-0.4,0.2-0.5l1.4-2.1c0.3-0.4,0.6-0.7,1.1-0.7c0.8,0,1.7,0.5,1.7,0.9c0,0.3-0.2,0.5-0.4,0.7l-1.6,1.5
			c-0.6,0.5-1,0.6-1.7,0.6C230.3,29.9,230,29.7,230,29.4z"/>
		<path class="st0" d="M243.9,32.6c0-0.8,0.6-1.5,1.5-1.5h6c2.1,0,3.8,0.6,4.8,1.7c0.9,0.9,1.4,2.2,1.4,3.6v0c0,2.7-1.6,4.3-3.8,5
			l3.2,4c0.3,0.4,0.5,0.7,0.5,1.1c0,0.8-0.7,1.4-1.4,1.4c-0.7,0-1.1-0.3-1.4-0.8l-4.1-5.2h-3.7v4.5c0,0.8-0.6,1.5-1.5,1.5
			c-0.8,0-1.5-0.6-1.5-1.5V32.6z M251.1,39.4c2.1,0,3.4-1.1,3.4-2.8v0c0-1.8-1.3-2.8-3.5-2.8h-4.3v5.6H251.1z"/>
		<path class="st0" d="M261.2,46.4V32.6c0-0.8,0.6-1.5,1.5-1.5h9.7c0.7,0,1.3,0.6,1.3,1.3c0,0.7-0.6,1.3-1.3,1.3h-8.3v4.4h7.2
			c0.7,0,1.3,0.6,1.3,1.3c0,0.7-0.6,1.3-1.3,1.3h-7.2v4.5h8.4c0.7,0,1.3,0.6,1.3,1.3c0,0.7-0.6,1.3-1.3,1.3h-9.9
			C261.8,47.9,261.2,47.2,261.2,46.4z"/>
		<path class="st0" d="M277.2,32.5c0-0.8,0.6-1.5,1.5-1.5c0.8,0,1.5,0.6,1.5,1.5v5.6h8v-5.6c0-0.8,0.6-1.5,1.5-1.5
			c0.8,0,1.5,0.6,1.5,1.5v14.1c0,0.8-0.6,1.5-1.5,1.5c-0.8,0-1.5-0.6-1.5-1.5v-5.7h-8v5.7c0,0.8-0.6,1.5-1.5,1.5
			c-0.8,0-1.5-0.6-1.5-1.5V32.5z"/>
		<path class="st0" d="M294.4,46l6.2-13.9c0.3-0.7,0.9-1.2,1.8-1.2h0.1c0.8,0,1.4,0.5,1.7,1.2l6.2,13.9c0.1,0.2,0.2,0.4,0.2,0.6
			c0,0.8-0.6,1.4-1.4,1.4c-0.7,0-1.2-0.4-1.4-1l-1.4-3.1h-8.1l-1.4,3.2c-0.2,0.6-0.7,0.9-1.4,0.9c-0.8,0-1.4-0.6-1.4-1.4
			C294.2,46.4,294.3,46.2,294.4,46z M305.4,41.2l-2.9-6.8l-2.9,6.8H305.4z"/>
		<path class="st0" d="M313.9,32.6c0-0.8,0.6-1.5,1.5-1.5h6c1.9,0,3.4,0.5,4.4,1.5c0.7,0.7,1.1,1.6,1.1,2.8v0c0,2-1.1,3.1-2.4,3.7
			c2,0.7,3.3,1.8,3.3,4.1v0c0,3-2.5,4.6-6.2,4.6h-6.3c-0.8,0-1.5-0.6-1.5-1.5V32.6z M320.8,38.2c1.9,0,3.2-0.7,3.2-2.3v0
			c0-1.3-1.1-2.1-2.9-2.1h-4.2v4.4H320.8z M321.6,45.3c2,0,3.2-0.8,3.2-2.3v0c0-1.4-1.1-2.2-3.4-2.2h-4.7v4.6H321.6z"/>
		<path class="st0" d="M331.3,32.5c0-0.8,0.6-1.5,1.5-1.5c0.8,0,1.5,0.6,1.5,1.5v14.1c0,0.8-0.6,1.5-1.5,1.5c-0.8,0-1.5-0.6-1.5-1.5
			V32.5z"/>
		<path class="st0" d="M338.7,32.5c0-0.8,0.6-1.5,1.5-1.5c0.8,0,1.5,0.6,1.5,1.5v12.7h7.6c0.7,0,1.3,0.6,1.3,1.3
			c0,0.7-0.6,1.3-1.3,1.3h-9c-0.8,0-1.5-0.6-1.5-1.5V32.5z"/>
		<path class="st0" d="M353.7,32.5c0-0.8,0.6-1.5,1.5-1.5c0.8,0,1.5,0.6,1.5,1.5v14.1c0,0.8-0.6,1.5-1.5,1.5c-0.8,0-1.5-0.6-1.5-1.5
			V32.5z"/>
		<path class="st0" d="M365.2,33.9h-4.1c-0.8,0-1.4-0.6-1.4-1.4c0-0.7,0.6-1.4,1.4-1.4h11.1c0.7,0,1.3,0.6,1.3,1.4
			c0,0.7-0.6,1.4-1.3,1.4h-4.1v12.7c0,0.8-0.7,1.5-1.5,1.5c-0.8,0-1.5-0.6-1.5-1.5V33.9z"/>
		<path class="st0" d="M373.7,46l6.2-13.9c0.3-0.7,0.9-1.2,1.8-1.2h0.1c0.8,0,1.4,0.5,1.7,1.2l6.2,13.9c0.1,0.2,0.2,0.4,0.2,0.6
			c0,0.8-0.6,1.4-1.4,1.4c-0.7,0-1.2-0.4-1.4-1l-1.4-3.1h-8.1l-1.4,3.2c-0.2,0.6-0.7,0.9-1.4,0.9c-0.8,0-1.4-0.6-1.4-1.4
			C373.5,46.4,373.6,46.2,373.7,46z M384.6,41.2l-2.9-6.8l-2.9,6.8H384.6z"/>
		<path class="st0" d="M391.7,39.6L391.7,39.6c0-4.8,3.6-8.7,8.6-8.7c2.6,0,4.3,0.8,5.7,1.9c0.3,0.2,0.6,0.6,0.6,1.2
			c0,0.8-0.6,1.4-1.5,1.4c-0.4,0-0.7-0.1-0.9-0.3c-1.1-0.9-2.4-1.5-4-1.5c-3.2,0-5.5,2.6-5.5,5.9v0c0,3.3,2.3,5.9,5.5,5.9
			c1.8,0,3-0.6,4.2-1.6c0.2-0.2,0.5-0.3,0.9-0.3c0.7,0,1.4,0.6,1.4,1.4c0,0.5-0.2,0.8-0.5,1.1c-1.6,1.4-3.4,2.2-6.1,2.2
			C395.3,48.2,391.7,44.4,391.7,39.6z"/>
		<path class="st0" d="M410.1,46.4V32.6c0-0.8,0.6-1.5,1.5-1.5h9.7c0.7,0,1.3,0.6,1.3,1.3c0,0.7-0.6,1.3-1.3,1.3H413v4.4h7.2
			c0.7,0,1.3,0.6,1.3,1.3c0,0.7-0.6,1.3-1.3,1.3H413v4.5h8.4c0.7,0,1.3,0.6,1.3,1.3c0,0.7-0.6,1.3-1.3,1.3h-9.9
			C410.7,47.9,410.1,47.2,410.1,46.4z"/>
	</g>
</g>
</svg>
